#!OML:ASF H:\ManfredObstacles\Project 1\Capture day 2\Session 1\male.ASF
:FULLY-SPECIFIED
:DEGREES
305
root 2.72948 15.3495 -23.5227 -171.029 3.81442 181.33
lowerback 1.07635 -1.7487 -1.67324
upperback 1.7866 -2.30031 0.14883
thorax 1.2997 -1.15713 1.08604
lowerneck -34.1139 2.74859 4.38512
upperneck 35.8215 4.20953 -2.92249
head 19.8712 2.15599 -0.950994
rclavicle -2.50469e-014 -1.07344e-014
rhumerus -63.2221 11.4101 -85.2206
rradius 80.4523
rwrist 8.14263
rhand -10.6283 -9.68875
rfingers 7.12502
rthumb 15.3785 -39.0968
lclavicle -2.50469e-014 -1.07344e-014
lhumerus -53.9273 -17.0527 91.4912
lradius 78.9594
lwrist -22.8698
lhand -11.9885 14.2263
lfingers 7.12502
lthumb 14.0681 43.7302
rfemur -17.9414 3.94385 27.7977
rtibia 39.8411
rfoot -15.4364 -19.0672
rtoes -21.2221
lfemur -15.2828 3.05898 -17.682
ltibia 74.6548
lfoot 18.8058 13.0467
ltoes 2.45293
306
root 2.73315 15.2846 -23.7218 -171.039 3.94827 181.409
lowerback 1.43383 -1.48142 -1.55074
upperback 1.92169 -1.93927 0.0581137
thorax 1.21911 -0.97095 0.933822
lowerneck -34.3149 2.62329 4.21144
upperneck 35.4151 3.90927 -2.72446
head 19.6453 2.01978 -0.907441
rclavicle 1.46107e-014 -2.38542e-015
rhumerus -60.8467 11.0951 -86.1679
rradius 80.1436
rwrist 8.99608
rhand -10.8027 -9.51301
rfingers 7.12502
rthumb 15.2106 -38.9339
lclavicle 1.46107e-014 -2.38542e-015
lhumerus -54.0536 -15.9183 90.8304
lradius 78.7509
lwrist -22.3649
lhand -12.1543 14.9541
lfingers 7.12502
lthumb 13.9083 44.469
rfemur -17.1504 4.08073 27.9248
rtibia 40.1375
rfoot -16.2447 -19.6701
rtoes -21.4802
lfemur -17.3521 2.90372 -17.5103
ltibia 77.096
lfoot 17.516 14.0313
ltoes 1.78721
307
root 2.7362 15.2302 -23.9238 -171.016 4.03373 181.403
lowerback 1.71531 -1.2346 -1.47798
upperback 2.0454 -1.60373 -0.0689523
thorax 1.17316 -0.797943 0.76748
lowerneck -34.5307 2.49392 4.05519
upperneck 35.0961 3.61621 -2.52483
head 19.4807 1.89419 -0.863375
rclavicle -1.71949e-014 -9.14409e-015
rhumerus -58.4034 10.8101 -87.2072
rradius 79.9516
rwrist 9.8116
rhand -10.9955 -9.23449
rfingers 7.12502
rthumb 15.0249 -38.6693
lclavicle -1.71949e-014 -9.14409e-015
lhumerus -54.3638 -14.8554 90.1624
lradius 78.8965
lwrist -21.8164
lhand -12.3487 15.5096
lfingers 7.12502
lthumb 13.721 45.0372
rfemur -16.304 4.24191 27.9605
rtibia 40.2652
rfoot -16.8521 -20.2992
rtoes -21.848
lfemur -19.4655 2.65108 -17.4505
ltibia 79.2589
lfoot 16.2961 15.0156
ltoes 1.18737
308
root 2.73894 15.1873 -24.1297 -170.944 4.10421 181.395
lowerback 1.91813 -0.983605 -1.39267
upperback 2.13683 -1.26264 -0.198577
thorax 1.1401 -0.622395 0.588067
lowerneck -34.7329 2.32621 3.86552
upperneck 34.8794 3.30341 -2.3034
head 19.3742 1.76658 -0.807124
rclavicle 3.57812e-015 3.57812e-015
rhumerus -55.9654 10.5581 -88.313
rradius 79.8833
rwrist 10.6374
rhand -11.1845 -8.88518
rfingers 7.12502
rthumb 14.8427 -38.3336
lclavicle 3.57812e-015 3.57812e-015
lhumerus -54.8606 -13.9046 89.5437
lradius 79.3574
lwrist -21.2385
lhand -12.5725 15.8833
lfingers 7.12502
lthumb 13.5053 45.4254
rfemur -15.4033 4.45172 27.9908
rtibia 40.1965
rfoot -17.2416 -20.8943
rtoes -22.2828
lfemur -21.6106 2.36545 -17.4069
ltibia 81.1249
lfoot 15.121 15.9636
ltoes 0.62836
309
root 2.74077 15.1558 -24.3404 -170.847 4.1695 181.438
lowerback 2.08134 -0.713695 -1.23975
upperback 2.18029 -0.897713 -0.313971
thorax 1.08131 -0.434781 0.38326
lowerneck -34.8507 2.10504 3.63166
upperneck 34.7403 2.95842 -2.06533
head 19.2927 1.63076 -0.742737
rclavicle -1.14301e-014 -6.75868e-015
rhumerus -53.6022 10.3641 -89.48
rradius 79.9204
rwrist 11.4217
rhand -11.393 -8.48471
rfingers 7.12502
rthumb 14.6419 -37.9478
lclavicle -1.14301e-014 -6.75868e-015
lhumerus -55.5359 -13.1069 89.0013
lradius 80.0732
lwrist -20.6846
lhand -12.7832 16.1011
lfingers 7.12502
lthumb 13.3021 45.6566
rfemur -14.4076 4.70743 28.0748
rtibia 39.9166
rfoot -17.4036 -21.4206
rtoes -22.8099
lfemur -23.7315 2.07254 -17.312
ltibia 82.6764
lfoot 13.9591 16.878
ltoes 0.0934331
310
root 2.74184 15.1365 -24.5568 -170.719 4.25021 181.541
lowerback 2.18761 -0.417965 -1.03221
upperback 2.19217 -0.499273 -0.40309
thorax 1.02482 -0.230844 0.172351
lowerneck -34.9632 1.8376 3.35372
upperneck 34.6996 2.59088 -1.82479
head 19.2687 1.48632 -0.674357
rclavicle -1.97791e-014 -9.54166e-015
rhumerus -51.311 10.2687 -90.6909
rradius 80.0513
rwrist 12.0988
rhand -11.6298 -8.07787
rfingers 7.12502
rthumb 14.4137 -37.5574
lclavicle -1.97791e-014 -9.54166e-015
lhumerus -56.2968 -12.4891 88.5589
lradius 80.9422
lwrist -20.1651
lhand -13.0271 16.2237
lfingers 7.12502
lthumb 13.0671 45.7944
rfemur -13.3244 4.99088 28.2138
rtibia 39.4311
rfoot -17.3382 -21.8216
rtoes -23.4328
lfemur -25.7987 1.8017 -17.1567
ltibia 83.8884
lfoot 12.8058 17.7435
ltoes -0.418614
311
root 2.7423 15.1292 -24.7788 -170.57 4.35967 181.694
lowerback 2.25851 -0.086194 -0.789182
upperback 2.16374 -0.0546481 -0.465397
thorax 0.950706 -0.00468398 -0.033002
lowerneck -35.0095 1.52992 3.04899
upperneck 34.6977 2.20661 -1.60988
head 19.254 1.33204 -0.617514
rclavicle 3.67752e-015 1.86858e-014
rhumerus -49.1433 10.2772 -91.9142
rradius 80.2728
rwrist 12.7412
rhand -11.8484 -7.71596
rfingers 7.12502
rthumb 14.2031 -37.2104
lclavicle 3.67752e-015 1.86858e-014
lhumerus -57.1192 -12.0635 88.2251
lradius 81.8991
lwrist -19.8097
lhand -13.2668 16.2998
lfingers 7.12502
lthumb 12.836 45.8851
rfemur -12.1645 5.29322 28.3958
rtibia 38.7615
rfoot -17.0534 -22.0668
rtoes -24.1365
lfemur -27.7871 1.57144 -16.9488
ltibia 84.7459
lfoot 11.6837 18.5277
ltoes -0.962253
312
root 2.74176 15.1337 -25.0071 -170.408 4.50747 181.846
lowerback 2.31215 0.281596 -0.561451
upperback 2.09419 0.435809 -0.52119
thorax 0.848789 0.243061 -0.225125
lowerneck -35.0326 1.19715 2.75775
upperneck 34.7792 1.81359 -1.43683
head 19.2861 1.17505 -0.584196
rclavicle 4.96962e-016 8.74653e-015
rhumerus -47.1217 10.4185 -93.1406
rradius 80.5668
rwrist 13.3509
rhand -12.0072 -7.42512
rfingers 7.12502
rthumb 14.0501 -36.9302
lclavicle 4.96962e-016 8.74653e-015
lhumerus -57.9807 -11.8411 87.9976
lradius 82.8936
lwrist -19.5934
lhand -13.5149 16.3599
lfingers 7.12502
lthumb 12.5968 45.9601
rfemur -10.9336 5.57233 28.5547
rtibia 37.9381
rfoot -16.5703 -22.1195
rtoes -24.9286
lfemur -29.6558 1.37741 -16.7543
ltibia 85.2254
lfoot 10.6388 19.2258
ltoes -1.5182
313
root 2.74098 15.1509 -25.2417 -170.224 4.7044 181.97
lowerback 2.32429 0.687977 -0.388885
upperback 1.99344 0.975642 -0.579403
thorax 0.742526 0.513804 -0.390671
lowerneck -35.0477 0.84708 2.48268
upperneck 34.8976 1.4086 -1.30077
head 19.3413 1.0124 -0.574046
rclavicle 1.74931e-014 -1.19271e-015
rhumerus -45.2554 10.6915 -94.3435
rradius 80.9291
rwrist 13.8283
rhand -12.1472 -7.10524
rfingers 7.12502
rthumb 13.9152 -36.6196
lclavicle 1.74931e-014 -1.19271e-015
lhumerus -58.844 -11.8058 87.8644
lradius 83.9004
lwrist -19.5063
lhand -13.7603 16.3997
lfingers 7.12502
lthumb 12.3602 46.0143
rfemur -9.67829 5.84072 28.6576
rtibia 36.9941
rfoot -15.8668 -21.9722
rtoes -25.7702
lfemur -31.4092 1.2288 -16.6004
ltibia 85.3201
lfoot 9.66662 19.8455
ltoes -2.07731
314
root 2.73984 15.1809 -25.4831 -170.006 4.9461 182.045
lowerback 2.28839 1.12854 -0.284144
upperback 1.86478 1.55907 -0.654783
thorax 0.638088 0.804861 -0.536836
lowerneck -35.0701 0.485532 2.23567
upperneck 35.0515 0.985276 -1.18921
head 19.4218 0.845093 -0.584877
rclavicle 7.7526e-015 -1.23246e-014
rhumerus -43.5533 11.0662 -95.5027
rradius 81.3787
rwrist 14.2445
rhand -12.1986 -6.78985
rfingers 7.12502
rthumb 13.8656 -36.3077
lclavicle 7.7526e-015 -1.23246e-014
lhumerus -59.7006 -11.9521 87.8087
lradius 84.9122
lwrist -19.4698
lhand -13.9893 16.399
lfingers 7.12502
lthumb 12.1394 46.0268
rfemur -8.4282 6.08343 28.672
rtibia 35.956
rfoot -14.9829 -21.598
rtoes -26.6327
lfemur -33.0392 1.1152 -16.5161
ltibia 85.027
lfoot 8.81233 20.4102
ltoes -2.7029
315
root 2.7382 15.2227 -25.7309 -169.756 5.20639 182.075
lowerback 2.19816 1.58555 -0.232402
upperback 1.7327 2.16404 -0.754077
thorax 0.563615 1.1061 -0.676962
lowerneck -35.143 0.122109 2.01598
upperneck 35.2168 0.539561 -1.08063
head 19.5236 0.672601 -0.607999
rclavicle 2.0276e-014 9.14409e-015
rhumerus -41.9735 11.5516 -96.6114
rradius 81.9176
rwrist 14.5101
rhand -12.1894 -6.45626
rfingers 7.12502
rthumb 13.8745 -35.9735
lclavicle 2.0276e-014 9.14409e-015
lhumerus -60.5152 -12.2284 87.7911
lradius 85.9439
lwrist -19.4167
lhand -14.2025 16.316
lfingers 7.12502
lthumb 11.9338 45.9558
rfemur -7.19701 6.27504 28.6061
rtibia 34.8389
rfoot -13.8941 -21.027
rtoes -27.5217
lfemur -34.5527 1.00995 -16.4917
ltibia 84.3666
lfoot 8.07942 20.9557
ltoes -3.32374
316
root 2.73686 15.2762 -25.9851 -169.465 5.48486 182.072
lowerback 2.05364 2.05697 -0.232306
upperback 1.60204 2.78821 -0.871507
thorax 0.523024 1.41662 -0.804302
lowerneck -35.332 0.7652 1.05818
upperneck 35.4093 -0.441683 -0.399902
head 19.6736 -0.434672 -0.621297
rclavicle 7.7526e-015 2.38542e-015
rhumerus -40.5039 12.1254 -97.6511
rradius 82.5452
rwrist 14.6333
rhand -12.1368 -6.11807
rfingers 7.12502
rthumb 13.9252 -35.6318
lclavicle 7.7526e-015 2.38542e-015
lhumerus -61.2847 -12.6063 87.8134
lradius 87.01
lwrist -19.2836
lhand -14.4262 16.1391
lfingers 7.12502
lthumb 11.7181 45.7913
rfemur -6.0037 6.4342 28.474
rtibia 33.6483
rfoot -12.6276 -20.2562
rtoes -28.4264
lfemur -35.951 0.925902 -16.5095
ltibia 83.3537
lfoot 7.47703 21.4994
ltoes -3.88079
317
root 2.73506 15.3392 -26.2455 -169.137 5.74106 182.071
lowerback 1.87096 2.52598 -0.226637
upperback 1.45411 3.40926 -1.00529
thorax 0.490049 1.72553 -0.948418
lowerneck -35.5155 0.373632 0.778902
upperneck 35.5603 -0.982559 -0.177688
head 19.8061 -0.641623 -0.609134
rclavicle -7.15625e-015 1.59028e-015
rhumerus -39.1852 12.7575 -98.6344
rradius 83.2631
rwrist 14.671
rhand -12.0574 -5.79018
rfingers 7.12502
rthumb 14.0017 -35.2986
lclavicle -7.15625e-015 1.59028e-015
lhumerus -62.0598 -13.0599 87.8558
lradius 88.1242
lwrist -19.0717
lhand -14.6093 15.8733
lfingers 7.12502
lthumb 11.5415 45.5355
rfemur -4.83879 6.5329 28.3175
rtibia 32.3827
rfoot -11.1726 -19.3029
rtoes -29.231
lfemur -37.241 0.832284 -16.5285
ltibia 82.0248
lfoot 7.00345 22.0683
ltoes -4.3992
318
root 2.73246 15.4107 -26.5127 -168.777 5.94894 182.06
lowerback 1.64192 2.9791 -0.215626
upperback 1.31092 4.0106 -1.15806
thorax 0.492376 2.02504 -1.1095
lowerneck -35.7927 -0.0379868 0.475419
upperneck 35.6979 -1.55526 0.0978498
head 19.9598 -0.850797 -0.574748
rclavicle -3.54831e-014 -2.38542e-015
rhumerus -37.9731 13.4631 -99.5548
rradius 84.0518
rwrist 14.5369
rhand -12.0002 -5.5023
rfingers 7.12502
rthumb 14.0568 -35.0069
lclavicle -3.54831e-014 -2.38542e-015
lhumerus -62.8009 -13.5762 87.9089
lradius 89.2592
lwrist -18.8046
lhand -14.7795 15.5281
lfingers 7.12502
lthumb 11.3774 45.1994
rfemur -3.68992 6.53974 28.1258
rtibia 31.0353
rfoot -9.51936 -18.1841
rtoes -29.9558
lfemur -38.406 0.702694 -16.5645
ltibia 80.3968
lfoot 6.68215 22.6716
ltoes -4.85375
